# xmcd
#
# Track frame offsets:
#	150
#	15152
#	27375
#	39629
#	49625
#	62775
#	71157
#	81122
#	89187
#	103130
#	116861
#	126842
#
# Disc length: 1885 seconds
#
# Revision: 1
# Processed by: cddbd v1.5.2PL0 Copyright (c) Steve Scherf et al.
# Submitted via: audiograbber 1.83.01
#
DISCID=a8075b0c
DTITLE=Willie Nelson - Willie Nelson [CD2 of 2)
DYEAR=2006
DGENRE=Country
TTITLE0=Face of a Fighter
TTITLE1=Can't Find the Time
TTITLE2=Pages
TTITLE3=I Don't Sleep a Wink
TTITLE4=You'll Always Have Someone
TTITLE5=Slow Down Old World
TTITLE6=Healing Hands of Time
TTITLE7=Things to Remember
TTITLE8=Home Is Where You're Happy
TTITLE9=No Tomorrow In Sight
TTITLE10=A New Way to Cry
TTITLE11=What Can You Do to Me Now
EXTD=
EXTT0=
EXTT1=
EXTT2=
EXTT3=
EXTT4=
EXTT5=
EXTT6=
EXTT7=
EXTT8=
EXTT9=
EXTT10=
EXTT11=
PLAYORDER=
